<svg xmlns="http://www.w3.org/2000/svg" width="421.344" height="117.192" viewBox="0 0 421.344 117.192">
    <g id="logo" transform="translate(1419.751 -1271.609)">
        <path id="Path_1" data-name="Path 1" d="M-1320.409,1321.371v67.43h-24.88V1364.46a46.622,46.622,0,0,1-17.038,6.13,50.581,50.581,0,0,1-17.038-.36,49.959,49.959,0,0,1-15.6-5.86,49.469,49.469,0,0,1-12.8-10.637,50.925,50.925,0,0,1-8.744-14.6,47.828,47.828,0,0,1-3.245-17.758,48.29,48.29,0,0,1,3.876-19.291,50.007,50.007,0,0,1,10.637-15.777,51.3,51.3,0,0,1,15.776-10.727,47.391,47.391,0,0,1,19.291-3.967,48.029,48.029,0,0,1,19.382,3.967,51.034,51.034,0,0,1,15.865,10.727,50.038,50.038,0,0,1,10.638,15.777A48.33,48.33,0,0,1-1320.409,1321.371Zm-24.88,0a24.119,24.119,0,0,0-1.984-9.646,25.262,25.262,0,0,0-5.319-7.933,25.263,25.263,0,0,0-7.933-5.319,24.13,24.13,0,0,0-9.646-1.982,23.3,23.3,0,0,0-9.646,1.982,27.02,27.02,0,0,0-7.843,5.319,23.338,23.338,0,0,0-5.318,7.933,25.089,25.089,0,0,0-1.894,9.646,24.861,24.861,0,0,0,1.894,9.736,23.52,23.52,0,0,0,5.318,7.843,26.921,26.921,0,0,0,7.843,5.319,23.244,23.244,0,0,0,9.646,1.983,24.074,24.074,0,0,0,9.646-1.983,25.178,25.178,0,0,0,7.933-5.319,25.5,25.5,0,0,0,5.319-7.843A23.9,23.9,0,0,0-1345.289,1321.371Z" transform="translate(0 0)" fill="#fff"/>
        <path id="Path_2" data-name="Path 2" d="M-1188.921,1271.83v49.762a48.962,48.962,0,0,1-3.876,19.38,49.775,49.775,0,0,1-10.637,15.867,50.031,50.031,0,0,1-15.776,10.637,48.3,48.3,0,0,1-19.292,3.877,48.92,48.92,0,0,1-19.381-3.877,49.72,49.72,0,0,1-15.866-10.637,49.732,49.732,0,0,1-10.638-15.867,48.923,48.923,0,0,1-3.876-19.38V1271.83h24.88v49.762a24.87,24.87,0,0,0,1.894,9.736,23.5,23.5,0,0,0,5.318,7.842,26.558,26.558,0,0,0,7.933,5.319,23.865,23.865,0,0,0,9.736,1.983,24.074,24.074,0,0,0,9.646-1.983,25.149,25.149,0,0,0,7.933-5.319,25.506,25.506,0,0,0,5.319-7.842,23.914,23.914,0,0,0,1.983-9.736V1271.83Z" transform="translate(-24.034 -0.041)" fill="#fff"/>
        <path id="Path_3" data-name="Path 3" d="M-1106.352,1271.83a48.979,48.979,0,0,1,19.382,3.876,49.806,49.806,0,0,1,15.866,10.638,50.07,50.07,0,0,1,10.637,15.776,48.337,48.337,0,0,1,3.876,19.291,48.539,48.539,0,0,1-3.245,17.849,50.7,50.7,0,0,1-8.743,14.694,48.961,48.961,0,0,1-12.892,10.637,49.31,49.31,0,0,1-15.686,5.769,52.258,52.258,0,0,1-17.038.271,46.582,46.582,0,0,1-17.037-6.13v24.341h-24.881v-67.43a48.291,48.291,0,0,1,3.876-19.291,50.014,50.014,0,0,1,10.638-15.776,49.773,49.773,0,0,1,15.866-10.638A48.969,48.969,0,0,1-1106.352,1271.83Zm24.881,49.581a23.49,23.49,0,0,0-1.983-9.556,26.733,26.733,0,0,0-5.319-7.933,23.394,23.394,0,0,0-7.933-5.319,25.1,25.1,0,0,0-9.647-1.894,24.867,24.867,0,0,0-9.735,1.894,23.568,23.568,0,0,0-7.843,5.319,26.6,26.6,0,0,0-5.319,7.933,23.445,23.445,0,0,0-1.983,9.556,23.857,23.857,0,0,0,1.983,9.735,25.409,25.409,0,0,0,5.319,7.843,25.437,25.437,0,0,0,7.843,5.319,23.859,23.859,0,0,0,9.735,1.983,24.079,24.079,0,0,0,9.647-1.983,25.208,25.208,0,0,0,7.933-5.319,25.531,25.531,0,0,0,5.319-7.843A23.9,23.9,0,0,0-1081.471,1321.411Z" transform="translate(-48.188 -0.041)" fill="#fff"/>
        <path id="Path_4" data-name="Path 4" d="M-926.346,1321.592a48.95,48.95,0,0,1-3.878,19.38,49.775,49.775,0,0,1-10.637,15.867,50.011,50.011,0,0,1-15.776,10.637,48.29,48.29,0,0,1-19.292,3.877,47.288,47.288,0,0,1-18.66-3.787,52.81,52.81,0,0,1-15.866-10.366,48.594,48.594,0,0,1-11-15.686,48.4,48.4,0,0,1-4.057-19.922,48.28,48.28,0,0,1,3.877-19.292A50,50,0,0,1-1011,1286.524,51.284,51.284,0,0,1-995.22,1275.8a47.386,47.386,0,0,1,19.292-3.967,47.3,47.3,0,0,1,18.66,3.786,52.934,52.934,0,0,1,15.866,10.366,48.7,48.7,0,0,1,11,15.687A48.4,48.4,0,0,1-926.346,1321.592Zm-49.582,24.88a23.443,23.443,0,0,0,9.555-1.983,26.625,26.625,0,0,0,7.933-5.319,23.555,23.555,0,0,0,5.318-7.842,24.867,24.867,0,0,0,1.893-9.736,25.09,25.09,0,0,0-1.893-9.646,23.371,23.371,0,0,0-5.318-7.933,26.732,26.732,0,0,0-7.933-5.319,23.5,23.5,0,0,0-9.555-1.984,23.913,23.913,0,0,0-9.735,1.984,25.5,25.5,0,0,0-7.844,5.319,25.165,25.165,0,0,0-5.318,7.933,24.077,24.077,0,0,0-1.984,9.646,23.864,23.864,0,0,0,1.984,9.736,25.406,25.406,0,0,0,5.318,7.842,25.406,25.406,0,0,0,7.844,5.319A23.853,23.853,0,0,0-975.928,1346.472Z" transform="translate(-72.06 -0.041)" fill="#fff"/>
    </g>
</svg>
